<svg width="38" height="37" viewBox="0 0 38 37" fill="none" xmlns="http://www.w3.org/2000/svg">
<path d="M15.4749 8.8638C15.4829 9.23529 15.38 9.60072 15.1794 9.91348C14.9787 10.2262 14.6895 10.4722 14.3485 10.6198C14.0075 10.7675 13.6303 10.8102 13.2649 10.7426C12.8996 10.6749 12.5626 10.4999 12.2971 10.24C12.0316 9.98 11.8495 9.64682 11.7742 9.28296C11.6989 8.9191 11.7336 8.54104 11.8741 8.19702C12.0145 7.853 12.2543 7.55865 12.5627 7.35147C12.8712 7.14429 13.2343 7.0337 13.6059 7.03381C13.8489 7.03104 14.09 7.07618 14.3155 7.16669C14.5409 7.25719 14.7463 7.39127 14.9199 7.56125C15.0935 7.73122 15.2319 7.93375 15.3271 8.15726C15.4224 8.38076 15.4726 8.62086 15.4749 8.8638Z" fill="#88AEE7"/>
<path d="M25.3028 8.8638C25.3108 9.23529 25.2078 9.60072 25.0072 9.91348C24.8066 10.2262 24.5173 10.4722 24.1763 10.6198C23.8354 10.7675 23.4582 10.8102 23.0928 10.7426C22.7274 10.6749 22.3905 10.4999 22.125 10.24C21.8594 9.98 21.6774 9.64682 21.6021 9.28296C21.5267 8.9191 21.5615 8.54104 21.702 8.19702C21.8424 7.853 22.0821 7.55865 22.3906 7.35147C22.699 7.14429 23.0623 7.0337 23.4339 7.03381C23.6768 7.03104 23.9179 7.07618 24.1433 7.16669C24.3688 7.25719 24.5742 7.39127 24.7478 7.56125C24.9214 7.73122 25.0597 7.93375 25.155 8.15726C25.2502 8.38076 25.3005 8.62086 25.3028 8.8638Z" fill="#88AEE7"/>
<path d="M36.238 13.2138C35.7243 13.4964 35.1451 13.6382 34.559 13.6248H26.595C27.3166 12.5502 27.8119 11.3399 28.051 10.0678C28.1588 9.49743 28.2131 8.91825 28.213 8.33779V0.460778C28.21 0.365983 28.1787 0.274255 28.123 0.197472C28.0673 0.12069 27.9899 0.0623914 27.9007 0.0300834C27.8115 -0.0022246 27.7147 -0.00704152 27.6228 0.0162589C27.5309 0.0395594 27.448 0.0899112 27.385 0.16079C26.8762 0.687795 26.2609 1.10024 25.5801 1.37063C24.8993 1.64101 24.1687 1.76311 23.437 1.72878C21.6954 1.72658 20.009 2.34004 18.676 3.46078C18.6355 3.49839 18.5828 3.51994 18.5275 3.52142C18.4723 3.52289 18.4184 3.50418 18.376 3.46877C17.0427 2.34261 15.3532 1.72604 13.608 1.72878C12.8762 1.76331 12.1455 1.6413 11.4647 1.3709C10.7839 1.10051 10.1686 0.687951 9.65997 0.16079C9.59695 0.0893487 9.51392 0.038493 9.42163 0.0148551C9.32934 -0.00878282 9.23206 -0.00412651 9.14246 0.0282218C9.05285 0.0605701 8.97509 0.119115 8.91919 0.196252C8.86328 0.273388 8.83183 0.365556 8.82898 0.460778V8.47778C8.82777 8.90747 8.8585 9.33665 8.92096 9.76177C9.10872 11.1429 9.60763 12.4635 10.38 13.6238H2.43799C1.8525 13.6373 1.27387 13.4955 0.760986 13.2128C0.686026 13.1669 0.600263 13.1415 0.51239 13.1393C0.424518 13.1371 0.337669 13.1581 0.260498 13.2002C0.183327 13.2423 0.118608 13.304 0.072876 13.3791C0.0271443 13.4541 0.00200294 13.5399 0 13.6278C0 13.6278 0 15.6458 0 15.6598C0 15.7358 0 15.8118 0 15.8888V15.9188C0 16.0558 0.00796289 16.1868 0.0119629 16.3188C0.0119629 16.3908 0.0199868 16.4618 0.0239868 16.5338C0.0359868 16.7138 0.049979 16.8918 0.065979 17.0678C0.071979 17.1268 0.0759702 17.1858 0.0819702 17.2418C0.10597 17.4608 0.136016 17.6778 0.166016 17.8958C0.179016 17.9698 0.191979 18.0448 0.203979 18.1208C0.229979 18.2718 0.258001 18.4208 0.289001 18.5728C0.305001 18.6548 0.320989 18.7388 0.338989 18.8218C0.382989 19.0218 0.429018 19.2218 0.481018 19.4218C0.501018 19.5078 0.527011 19.5918 0.549011 19.6738C0.557011 19.7008 0.564984 19.7268 0.570984 19.7538C0.600984 19.8538 0.629011 19.9538 0.661011 20.0538C0.693011 20.1538 0.722986 20.2588 0.760986 20.3588C0.798986 20.4588 0.835 20.5778 0.875 20.6858C0.937 20.8638 1.00501 21.0378 1.07501 21.2128C1.11101 21.3048 1.14701 21.3948 1.18701 21.4868C1.23701 21.6038 1.287 21.7208 1.341 21.8388C1.373 21.9108 1.40498 21.9818 1.44098 22.0518C1.63498 22.4631 1.84666 22.8651 2.07599 23.2578C2.10199 23.3028 2.12799 23.3458 2.15399 23.3888C2.23199 23.5218 2.52097 23.9758 2.52197 23.9778C2.91624 24.5733 3.35057 25.1413 3.82196 25.6778C3.82196 25.6838 3.832 25.6898 3.836 25.6948C4.018 25.9028 4.20801 26.1058 4.40302 26.3038L4.42096 26.3218C4.92184 26.8301 5.45642 27.3042 6.021 27.7408C6.02845 27.7446 6.03523 27.7497 6.04102 27.7558C6.26502 27.9278 6.49397 28.0945 6.72797 28.2558C7.32491 28.6639 7.94866 29.0314 8.59497 29.3558C8.59497 29.3558 8.60299 29.3618 8.60699 29.3638C8.82099 29.4718 9.038 29.5758 9.258 29.6728C9.97705 29.9943 10.7191 30.2617 11.478 30.4728H11.486C12.3155 30.7036 13.1623 30.8678 14.018 30.9638C14.068 30.9718 14.174 30.9808 14.174 30.9808C14.5225 31.0323 14.8521 31.1716 15.132 31.3855C15.4119 31.5994 15.6328 31.881 15.774 32.2038L16.344 33.4568L17.737 36.5118C17.7504 36.5405 17.7665 36.568 17.785 36.5938C17.7867 36.6017 17.7901 36.6093 17.795 36.6158C17.8206 36.6564 17.8508 36.694 17.885 36.7278C17.8917 36.7372 17.8998 36.7457 17.909 36.7528C17.9355 36.7798 17.9643 36.8046 17.995 36.8268C18.0057 36.8353 18.0171 36.843 18.029 36.8498C18.0694 36.879 18.113 36.9035 18.159 36.9228H18.165C18.2107 36.9425 18.2583 36.9575 18.307 36.9678L18.345 36.9778C18.3951 36.9873 18.446 36.992 18.497 36.9918C18.5467 36.992 18.5962 36.9873 18.645 36.9778L18.687 36.9678C18.735 36.9574 18.7819 36.9423 18.827 36.9228H18.835C18.8814 36.9031 18.9256 36.8786 18.967 36.8498C18.9782 36.8429 18.9889 36.8352 18.999 36.8268C19.0294 36.8043 19.0582 36.7795 19.085 36.7528C19.0945 36.7454 19.1032 36.737 19.111 36.7278C19.1444 36.6933 19.1745 36.6558 19.201 36.6158C19.2037 36.6082 19.207 36.6008 19.211 36.5938C19.228 36.5678 19.2427 36.5403 19.255 36.5118L20.655 33.4568L21.228 32.2038C21.37 31.8806 21.5918 31.5989 21.8725 31.385C22.1532 31.171 22.4838 31.0319 22.833 30.9808L22.983 30.9638C23.8415 30.8703 24.6908 30.7054 25.522 30.4708C26.2815 30.2619 27.0238 29.9944 27.742 29.6708C27.964 29.5708 28.18 29.4708 28.396 29.3618H28.406C30.8699 28.1242 32.9662 26.2623 34.486 23.9618C34.5318 23.91 34.5701 23.8521 34.6 23.7898C34.69 23.6468 34.78 23.5018 34.864 23.3548C34.876 23.3358 34.888 23.3158 34.9 23.2978C35.142 22.8808 35.37 22.4558 35.575 22.0158C35.599 21.9628 35.625 21.9098 35.647 21.8598C35.705 21.7298 35.763 21.6018 35.817 21.4698C35.845 21.4028 35.873 21.3368 35.899 21.2698C35.979 21.0698 36.057 20.8698 36.127 20.6698C36.163 20.5698 36.199 20.4681 36.235 20.3648C36.267 20.2648 36.299 20.1598 36.335 20.0578C36.371 19.9558 36.396 19.8578 36.423 19.7578C36.4332 19.7276 36.4418 19.6968 36.449 19.6658C36.471 19.5898 36.495 19.5118 36.515 19.4348C36.569 19.2298 36.615 19.0238 36.661 18.8168L36.703 18.6068C36.737 18.4348 36.769 18.2638 36.803 18.0898C36.811 18.0328 36.821 17.9798 36.829 17.9238C36.865 17.6931 36.895 17.4621 36.919 17.2308C36.919 17.1988 36.925 17.1678 36.929 17.1388C36.949 16.9268 36.965 16.7138 36.979 16.5028C36.979 16.4538 36.979 16.4028 36.985 16.3598C36.995 16.1498 37.001 15.9408 37.003 15.7278V13.6278C37.0012 13.5394 36.9761 13.453 36.9301 13.3775C36.884 13.302 36.8189 13.2401 36.7411 13.198C36.6633 13.1559 36.5757 13.1352 36.4874 13.138C36.399 13.1407 36.3129 13.1669 36.238 13.2138ZM10.498 2.80779C11.4674 3.26072 12.539 3.4504 13.605 3.35778C14.9499 3.35524 16.252 3.83049 17.279 4.69878C17.6275 4.99356 18.0697 5.15429 18.5262 5.15209C18.9826 5.14989 19.4233 4.98491 19.769 4.68679C20.7948 3.82662 22.0913 3.35599 23.43 3.35778C24.496 3.45011 25.5675 3.26045 26.537 2.80779C26.5325 3.22413 26.3636 3.62178 26.067 3.91403C25.7705 4.20627 25.3703 4.3694 24.954 4.36779C24.8266 4.36789 24.6997 4.35277 24.576 4.32278C24.2022 4.2336 23.8192 4.18897 23.435 4.18978C22.5554 4.18624 21.6918 4.42445 20.9384 4.87838C20.185 5.33231 19.5709 5.98452 19.163 6.76379L18.993 7.04778C18.9422 7.13045 18.8708 7.1985 18.7858 7.24532C18.7008 7.29215 18.6051 7.31614 18.5081 7.31493C18.411 7.31372 18.316 7.28735 18.2322 7.23843C18.1484 7.1895 18.0787 7.1197 18.03 7.03579L17.876 6.76379C17.4682 5.98482 16.8544 5.33281 16.1014 4.8789C15.3484 4.42499 14.4852 4.1866 13.606 4.18978C13.2204 4.18957 12.836 4.23489 12.461 4.32479C12.2298 4.38223 11.9886 4.38666 11.7554 4.33776C11.5222 4.28886 11.3031 4.18788 11.1144 4.04238C10.9257 3.89689 10.7723 3.71065 10.6658 3.49755C10.5592 3.28445 10.5022 3.05003 10.499 2.81179L10.498 2.80779ZM26.541 8.86379C26.5549 9.48212 26.3843 10.0906 26.0508 10.6115C25.7174 11.1324 25.2363 11.5421 24.6689 11.7884C24.1016 12.0347 23.4738 12.1063 22.8655 11.9942C22.2573 11.8821 21.6963 11.5912 21.2541 11.1588C20.8119 10.7264 20.5085 10.1721 20.3828 9.56649C20.257 8.96092 20.3146 8.33162 20.5481 7.7589C20.7816 7.18619 21.1804 6.69603 21.6937 6.35101C22.207 6.00598 22.8115 5.82173 23.43 5.82177C24.2455 5.81377 25.0308 6.12974 25.6135 6.70028C26.1963 7.27082 26.5287 8.04929 26.538 8.86477L26.541 8.86379ZM19.783 11.9058L18.498 13.1638L17.225 11.9108L17.231 11.9028C17.3245 11.7882 17.4336 11.6872 17.555 11.6028C17.9006 11.377 18.3159 11.2833 18.725 11.339C19.134 11.3946 19.5093 11.5959 19.782 11.9058H19.783ZM13.61 5.82177C14.2088 5.83516 14.7903 6.02498 15.2817 6.36742C15.7732 6.70987 16.1526 7.18971 16.3725 7.74685C16.5924 8.30399 16.643 8.91362 16.5179 9.49938C16.3929 10.0851 16.0977 10.621 15.6694 11.0397C15.2412 11.4585 14.6989 11.7416 14.1105 11.8534C13.5221 11.9653 12.9137 11.9011 12.3616 11.6688C11.8096 11.4364 11.3384 11.0463 11.007 10.5474C10.6757 10.0484 10.4989 9.46276 10.499 8.86379C10.5082 8.04815 10.841 7.26955 11.4243 6.69927C12.0075 6.12899 12.7934 5.81371 13.609 5.82278L13.61 5.82177ZM11.454 28.7638C8.99094 27.9993 6.78841 26.5662 5.09155 24.6241C3.3947 22.682 2.27013 20.3071 1.84302 17.7638C1.72753 17.056 1.66964 16.3399 1.66998 15.6228C1.67051 15.5742 1.68063 15.5262 1.69971 15.4815C1.71879 15.4368 1.74646 15.3963 1.78119 15.3623C1.81592 15.3283 1.85701 15.3015 1.9021 15.2834C1.94719 15.2653 1.99542 15.2562 2.04401 15.2568H7.47699C9.43825 15.2357 11.3277 15.9941 12.73 17.3654C14.1324 18.7366 14.933 20.6085 14.956 22.5698V29.4068C13.766 29.341 12.589 29.1253 11.453 28.7648L11.454 28.7638ZM19.778 31.3788L18.829 33.4598H18.172L17.222 31.3788C17.2064 31.3435 17.1999 31.3048 17.2031 31.2664C17.2064 31.2279 17.2193 31.1909 17.2406 31.1587C17.2619 31.1265 17.291 31.1003 17.3251 31.0823C17.3593 31.0643 17.3974 31.0552 17.436 31.0558H19.564C19.6024 31.0557 19.6403 31.0652 19.6742 31.0835C19.708 31.1017 19.7368 31.1281 19.7578 31.1603C19.7789 31.1925 19.7916 31.2294 19.7947 31.2677C19.7979 31.306 19.7915 31.3446 19.776 31.3798L19.778 31.3788ZM20.372 27.6018C20.3607 28.0909 20.1585 28.5562 19.8085 28.8981C19.4586 29.2401 18.9888 29.4315 18.4995 29.4315C18.0103 29.4315 17.5404 29.2401 17.1905 28.8981C16.8406 28.5562 16.6383 28.0909 16.627 27.6018V19.7878C16.6383 19.2986 16.8406 18.8334 17.1905 18.4914C17.5404 18.1495 18.0103 17.9581 18.4995 17.9581C18.9888 17.9581 19.4586 18.1495 19.8085 18.4914C20.1585 18.8334 20.3607 19.2986 20.372 19.7878V27.6018ZM18.657 16.3248C17.5956 16.3479 16.5401 16.1609 15.5512 15.7746C14.5623 15.3883 13.6596 14.8103 12.895 14.0738C12.6531 13.8422 12.4266 13.595 12.217 13.3338C13.2284 13.6374 14.3113 13.6023 15.301 13.2338C15.4927 13.1593 15.7018 13.1411 15.9036 13.1813C16.1053 13.2215 16.2914 13.3185 16.44 13.4608L17.909 14.8978C18.0662 15.0522 18.2777 15.1387 18.498 15.1388C18.7195 15.1386 18.9322 15.0521 19.091 14.8978L20.568 13.4498C20.7175 13.307 20.9047 13.2099 21.1076 13.1701C21.3105 13.1302 21.5206 13.1492 21.713 13.2248C22.6836 13.5932 23.7469 13.6398 24.746 13.3578C24.0087 14.2669 23.0815 15.0037 22.0292 15.5164C20.977 16.0291 19.8253 16.3054 18.655 16.3258L18.657 16.3248ZM35.157 17.7658C34.7296 20.309 33.605 22.6839 31.9081 24.6259C30.2113 26.568 28.0089 28.0011 25.546 28.7658C24.411 29.1267 23.2351 29.3431 22.046 29.4098V22.5728C22.0448 21.6046 22.2401 20.6463 22.62 19.7558C22.9317 19.0285 23.3596 18.3567 23.887 17.7668C24.5959 16.9747 25.4647 16.3417 26.4359 15.9096C27.4072 15.4775 28.4589 15.2561 29.522 15.2598H34.957C35.055 15.259 35.1494 15.297 35.2195 15.3656C35.2896 15.4342 35.3297 15.5277 35.331 15.6258C35.3309 16.3426 35.2727 17.0583 35.157 17.7658Z" fill="#88AEE7"/>
</svg>
